<svg xmlns="http://www.w3.org/2000/svg" viewBox="0 0 65.93 172.87"><defs><style>.cls-1{fill:#fbc135;}.cls-2{fill:#b82f20;}.cls-3{fill:#396e9e;}.cls-4{fill:#fdf388;}.cls-5{fill:#f8b02b;}.cls-6{fill:#ffe871;}.cls-7{fill:#f3bc3a;}</style></defs><g id="Layer_2" data-name="Layer 2"><g id="Layer_1-2" data-name="Layer 1"><path class="cls-1" d="M65.93,65,0,64.67v-54H65Q65.47,37.83,65.93,65Z"/><path class="cls-2" d="M65.93,118.92,0,118.63v-54l65.93.3Z"/><path class="cls-3" d="M65.93,172.87,0,172.59v-54l65.93.3Z"/><path class="cls-4" d="M65,10.71H0C1.18,9.5,2.36,8.3,3.53,7.09L58.72,7Z"/><rect class="cls-5" x="38.22" y="1.45" width="20.5" height="6.3" rx="0.75"/><path class="cls-6" d="M58.22,1.54c0,.34-5.71.33-9.75.32s-9.71,0-9.72-.37,4.71-1,9.72-1S58.23,1.22,58.22,1.54Z"/><rect class="cls-7" x="38.99" y="4.52" width="19.73" height="6.3" rx="0.75"/><path class="cls-6" d="M58,4.52c0,.41-7.39.41-9.11.41s-9.1,0-9.12-.41,4.48-.91,9.12-.91S58,4.21,58,4.52Z"/><rect class="cls-5" x="5.77" y="0.92" width="19.28" height="6.3" rx="0.75"/><path class="cls-6" d="M24.36.92c0,.4-7.25.4-8.95.4s-8.94,0-8.95-.4,4.39-.92,9-.92S24.37.6,24.36.92Z"/><rect class="cls-7" x="5.02" y="4.52" width="19.73" height="6.3" rx="0.75"/><path class="cls-6" d="M24.24,4.6c0,.38-6.26.35-9.36.33s-9.1,0-9.11-.41,4.45-.92,9.11-.91C19.69,3.62,24.26,4.28,24.24,4.6Z"/></g></g></svg>