<svg xmlns="http://www.w3.org/2000/svg" viewBox="0 0 73.65 256.07"><defs><style>.cls-1{fill:#396e9e;}.cls-2{fill:#e6deda;}.cls-3{fill:#fbc135;}.cls-4{fill:#a4a2a7;}.cls-5{fill:#dad3c4;}.cls-6{fill:#fcc88c;}.cls-7{fill:#fff486;}.cls-8{fill:#f8b02b;}.cls-9{fill:#ffe871;}</style></defs><g id="Layer_2" data-name="Layer 2"><g id="Layer_1-2" data-name="Layer 1"><rect class="cls-1" x="0.49" y="175.23" width="63.57" height="80.63"/><rect class="cls-2" y="92.23" width="63.57" height="82.99"/><rect class="cls-3" y="9.47" width="63.57" height="82.99"/><path class="cls-4" d="M73.65,245.34l-9.3,10.73q-.15-40.42-.29-80.84l8.54-8.39Z"/><path class="cls-5" d="M72.6,166.84l-8.54,8.39q-.24-41.5-.49-83l8.39-4Q72.28,127.51,72.6,166.84Z"/><path class="cls-6" d="M72,88.18l-8.39,4V9.47L70.91,7Z"/><path class="cls-7" d="M63.57,9.47H0L13,7.19,70.91,7Z"/><rect class="cls-8" x="19.46" y="0.98" width="16" height="6.72" rx="0.75"/><ellipse class="cls-9" cx="27.45" cy="0.71" rx="7.62" ry="0.71"/><rect class="cls-8" x="12.62" y="3.16" width="16.63" height="6.3" rx="0.75"/><ellipse class="cls-9" cx="20.94" cy="2.91" rx="7.92" ry="0.66"/><rect class="cls-8" x="50.18" y="0.98" width="15.93" height="6.72" rx="0.75"/><ellipse class="cls-9" cx="58.15" cy="0.71" rx="7.58" ry="0.71"/><rect class="cls-8" x="42.57" y="4.04" width="16.81" height="5.75" rx="0.75"/><ellipse class="cls-9" cx="50.98" cy="3.81" rx="8.01" ry="0.6"/></g></g></svg>