<svg xmlns="http://www.w3.org/2000/svg" viewBox="0 0 69.86 159.21"><defs><style>.cls-1{fill:#fbc135;}.cls-2{fill:#d25d26;}.cls-3{fill:#fdd38e;}.cls-4{fill:#ffab94;}.cls-5{fill:#f8b02b;}.cls-6{fill:#ffe871;}.cls-7{fill:#fdf388;}.cls-8{fill:#f3bc3a;}</style></defs><g id="Layer_2" data-name="Layer 2"><g id="Layer_1-2" data-name="Layer 1"><path class="cls-1" d="M69.86,65.29H3.93V11H69Q69.42,38.16,69.86,65.29Z"/><path class="cls-2" d="M69.86,159.21l-65.93-.5V65.29H69Q69.42,112.24,69.86,159.21Z"/><path class="cls-3" d="M3.93,65.29,0,59.49.63,7.22,3.93,11Z"/><path class="cls-4" d="M3.93,158.71,0,149.1V59.49l3.93,5.8Z"/><rect class="cls-5" x="41.03" y="0.92" width="20.5" height="6.3" rx="0.75"/><path class="cls-6" d="M61,1c0,.35-5.7.33-9.74.32s-9.72,0-9.73-.37S46.27,0,51.28,0,61,.69,61,1Z"/><path class="cls-7" d="M69,10.92h-65L.63,7.22h62Z"/><rect class="cls-5" x="5.72" y="0.92" width="20.5" height="6.3" rx="0.75"/><path class="cls-6" d="M25.71,1c0,.35-5.7.33-9.75.32S6.25,1.3,6.24,1,11,0,16,0,25.73.69,25.71,1Z"/><rect class="cls-8" x="9.48" y="4.53" width="19.73" height="6.3" rx="0.75"/><path class="cls-6" d="M28.7,4.6c0,.38-6.26.35-9.35.33s-9.1,0-9.12-.4,4.45-.93,9.12-.92S28.72,4.29,28.7,4.6Z"/><rect class="cls-8" x="43.74" y="4.98" width="19.73" height="6.3" rx="0.75"/><path class="cls-6" d="M62.72,5c0,.41-7.4.41-9.12.41s-9.1,0-9.11-.41S49,4.07,53.6,4.07,62.73,4.66,62.72,5Z"/></g></g></svg>