<svg xmlns="http://www.w3.org/2000/svg" viewBox="0 0 74.72 121.69"><defs><style>.cls-1{fill:#fbc135;}.cls-2{fill:#6d91c4;}.cls-3{fill:#ffe478;}.cls-4{fill:#a6aed3;}.cls-5{fill:#fdf388;}.cls-6{fill:#f8b02b;}.cls-7{fill:#ffe871;}.cls-8{fill:#f3bc3a;}</style></defs><g id="Layer_2" data-name="Layer 2"><g id="Layer_1-2" data-name="Layer 1"><path class="cls-1" d="M73.11,53,9.7,52.81v-39H72.25Q72.69,33.41,73.11,53Z"/><path class="cls-2" d="M73.11,121.69,9.7,121.32V52.81L72.25,53Q72.69,87.35,73.11,121.69Z"/><path class="cls-3" d="M9.7,52.81.24,45.38.56,6,9.7,13.77Z"/><path class="cls-4" d="M9.7,121.32,0,111.51.24,45.38,9.7,52.81Z"/><path class="cls-5" d="M74.72,13.77h-65L.56,6l58.81-.47Z"/><rect class="cls-6" x="8.62" y="0.92" width="18.81" height="6.3" rx="0.75"/><path class="cls-7" d="M27,1c0,.35-5.24.33-8.95.32S9.11,1.3,9.1,1,13.43,0,18,0,27,.69,27,1Z"/><rect class="cls-8" x="14.08" y="7.47" width="19.73" height="6.3" rx="0.75"/><path class="cls-7" d="M33.06,7.47c0,.41-7.39.41-9.11.41s-9.1,0-9.12-.41,4.48-.91,9.12-.91S33.07,7.15,33.06,7.47Z"/><rect class="cls-6" x="41.4" y="1.37" width="16.75" height="6.3" rx="0.75"/><path class="cls-7" d="M57.74,1.46c0,.35-4.66.33-8,.32s-7.94,0-8-.37,3.86-1,8-.95S57.76,1.15,57.74,1.46Z"/><rect class="cls-8" x="44.69" y="7.93" width="19.73" height="6.3" rx="0.75"/><path class="cls-7" d="M63.67,7.93c0,.41-7.39.41-9.12.41s-9.09,0-9.11-.41S49.92,7,54.55,7,63.68,7.61,63.67,7.93Z"/></g></g></svg>