<svg xmlns="http://www.w3.org/2000/svg" viewBox="0 0 72.52 405.85"><defs><style>.cls-1{fill:#b0b94e;}.cls-2{fill:#fbc135;}.cls-3{fill:#1f3664;}.cls-4{fill:#014b9c;}.cls-5{fill:#5b74bc;}.cls-6{fill:#d2c79e;}.cls-7{fill:#f4d59d;}.cls-8{fill:#a4aacb;}</style></defs><g id="Layer_2" data-name="Layer 2"><g id="Layer_1-2" data-name="Layer 1"><path class="cls-1" d="M67.72,405.67l-65,.18L1.8,243l65.92.37Z"/><path class="cls-2" d="M67.72,243.32,1.8,243v-69h65Q67.28,208.62,67.72,243.32Z"/><path class="cls-3" d="M66,7.87,0,7.71,17.23,5.39l54.51.53Z"/><path class="cls-4" d="M66.83,173.91H1.8L0,7.71l66,.16Q66.41,90.9,66.83,173.91Z"/><rect class="cls-3" x="46.89" y="0.91" width="16.81" height="5.75" rx="0.75"/><path class="cls-5" d="M63.22,1c0,.31-4.47.3-7.92.3s-7.92,0-7.94-.32S51.2.07,55.3.07,63.24.69,63.22,1Z"/><rect class="cls-3" x="44.17" y="3.17" width="16.81" height="4.7" rx="0.75"/><path class="cls-5" d="M60.59,3.26c0,.23-3.73.22-8,.21s-7.94,0-7.95-.24,3.83-.75,7.95-.74S60.6,3,60.59,3.26Z"/><rect class="cls-3" x="18.21" y="0.76" width="16.81" height="5.21" rx="0.75"/><path class="cls-5" d="M34.79,1c0,.2-2.74.18-8.17.15-5.26,0-7.89-.06-7.91-.27S22.49,0,26.62,0,34.81.69,34.79,1Z"/><rect class="cls-3" x="9.8" y="2.73" width="16.81" height="4.73" rx="0.75"/><path class="cls-5" d="M26.27,2.81c0,.24-3.86.23-8.06.23s-7.92,0-7.93-.25S14.11,2,18.21,2,26.28,2.58,26.27,2.81Z"/><path class="cls-6" d="M72.52,385.36l-4.65,20.13-.15-162.17L72,238.2Q72.26,311.77,72.52,385.36Z"/><path class="cls-7" d="M72,238.2l-4.27,5.12q-.43-34.69-.89-69.41l5-3.59Z"/><path class="cls-8" d="M71.84,170.32l-5,3.59q-.42-83-.86-166l5.77-1.95Q71.79,88.12,71.84,170.32Z"/></g></g></svg>