<svg xmlns="http://www.w3.org/2000/svg" viewBox="0 0 75.11 185.8"><defs><style>.cls-1{fill:#eb6630;}.cls-2{fill:#ece4de;}.cls-3{fill:#337f41;}.cls-4{fill:#c46e57;}.cls-5{fill:#cbbeb7;}.cls-6{fill:#888572;}.cls-7{fill:#acca9c;}.cls-8{fill:#244923;}.cls-9{fill:#89bb8b;}</style></defs><g id="Layer_2" data-name="Layer 2"><g id="Layer_1-2" data-name="Layer 1"><path class="cls-1" d="M64,185.76l-63.87,0-.08-27,64,.95Q64,172.78,64,185.76Z"/><path class="cls-2" d="M64,159.79l-64-.95.15-25,63.77-.06Q64,146.78,64,159.79Z"/><path class="cls-3" d="M63.92,133.78,0,133.62V92.54H64Q64,113.15,63.92,133.78Z"/><path class="cls-1" d="M64,92.53l-63.87,0L.08,77.8l64,.52Q64.06,85.43,64,92.53Z"/><path class="cls-2" d="M64.07,78.32l-64-.52Q0,57.48,0,37.14l64,0Q64,57.74,64.07,78.32Z"/><path class="cls-3" d="M64.07,37.65l-64-.37Q0,22.81,0,8.34l64,0Q64,23,64.07,37.65Z"/><path class="cls-4" d="M75.05,176.76l-11,8.62q0-12.8,0-25.59l10.81-9Z"/><path class="cls-5" d="M74.84,150.75l-10.81,9q-.06-13-.11-26l11.13-7.13Z"/><path class="cls-6" d="M75.05,126.65l-11.13,7.13q0-20.62.11-41.24L75.11,81.92Z"/><path class="cls-4" d="M75.11,81.92,64,92.54l.15-14.15,10.83-7Z"/><path class="cls-5" d="M75,71.34,64,78.93l0-41.28,10.94-7Z"/><path class="cls-6" d="M75.11,32.92,64,37.65,64,8.36,75.11,5.22Z"/><path class="cls-7" d="M64,8.36l-64,0L18.28,5.06l56.83.16Z"/><rect class="cls-8" x="14.97" y="0.36" width="19.3" height="5.54" rx="1.66"/><path class="cls-9" d="M33.55.59C33.55.84,28.84,1,25,1c-4.07,0-9-.28-9-.54S20.79,0,25,0C29,0,33.56.35,33.55.59Z"/><rect class="cls-8" x="7.15" y="3.47" width="19.3" height="5.54" rx="1.66"/><path class="cls-9" d="M25.73,3.7c0,.24-4.71.43-8.52.41-4.07,0-9-.29-9-.54s4.74-.5,9-.46C21.21,3.15,25.74,3.45,25.73,3.7Z"/><rect class="cls-8" x="47.64" y="0.88" width="19.3" height="5.54" rx="1.66"/><path class="cls-9" d="M66.22,1.11c0,.25-4.71.43-8.51.41-4.07,0-9-.29-9-.54s4.74-.5,9-.46C61.71.56,66.23.86,66.22,1.11Z"/><rect class="cls-8" x="41.93" y="3.63" width="19.3" height="5.54" rx="1.66"/><path class="cls-9" d="M60.51,3.86c0,.24-4.71.42-8.51.4-4.07,0-9-.28-9-.53s4.74-.5,9-.46C56,3.31,60.52,3.61,60.51,3.86Z"/></g></g></svg>