<svg xmlns="http://www.w3.org/2000/svg" viewBox="0 0 71.83 187.07"><defs><style>.cls-1{fill:#eb6630;}.cls-2{fill:#ece4de;}.cls-3{fill:#cf2a17;}.cls-4{fill:#e79a8b;}.cls-5{fill:#e1d4cb;}.cls-6{fill:#df988c;}.cls-7{fill:#ea9a7a;}.cls-8{fill:#e9ddd6;}.cls-9{fill:#c98981;}.cls-10{fill:#ff927c;}.cls-11{fill:#ca240a;}.cls-12{fill:#f66e5b;}</style></defs><g id="Layer_2" data-name="Layer 2"><g id="Layer_1-2" data-name="Layer 1"><path class="cls-1" d="M65.83,187.07.08,185.75l-.08-27,65.1,1Z"/><path class="cls-2" d="M65.1,159.74l-65.1-1,.38-25.53,64.55.19Q65,146.59,65.1,159.74Z"/><path class="cls-3" d="M64.93,133.45.38,133.26Q.44,112.7.49,92.13l64.56.07Z"/><path class="cls-1" d="M65.05,92.2.49,92.13q.06-7.27.13-14.56l64.51,0Q65.08,84.89,65.05,92.2Z"/><path class="cls-2" d="M65.12,77.45l-64.5.12L.7,37.63l64-.05Q64.91,57.52,65.12,77.45Z"/><path class="cls-3" d="M64.72,37.58l-64,.05V9.6l64,.08Q64.68,23.63,64.72,37.58Z"/><path class="cls-4" d="M71.83,179.25l-6,7.82-.73-27.33,6.33-6.34Q71.63,166.33,71.83,179.25Z"/><path class="cls-5" d="M71.43,153.4l-6.33,6.34q-.07-13.14-.17-26.29l6.55-6.22Q71.47,140.33,71.43,153.4Z"/><path class="cls-6" d="M71.48,127.23l-6.55,6.22q.1-20.62.2-41.25l6.3-6.09Q71.46,106.66,71.48,127.23Z"/><path class="cls-7" d="M71.43,86.11,65.05,92.2q0-7.31.08-14.61l6.29-5.66Q71.42,79,71.43,86.11Z"/><path class="cls-8" d="M71.42,71.93l-6.29,5.66q-.21-20-.41-40l6.87-6.06Z"/><path class="cls-9" d="M71.59,31.52l-6.87,6.06q0-13.95-.07-27.9l7-4.14Z"/><path class="cls-10" d="M64.65,9.68.7,9.6,13.29,5.29l58.39.25Z"/><rect class="cls-11" x="12.14" y="0.54" width="19.3" height="5.54" rx="1.66"/><path class="cls-12" d="M30.72.77c0,.25-4.71.43-8.51.41-4.07,0-9-.28-9-.54s4.74-.49,9-.45C26.21.22,30.73.53,30.72.77Z"/><rect class="cls-11" x="7.83" y="4.74" width="19.3" height="5.54" rx="1.66"/><path class="cls-12" d="M26.23,4.78c0,.25-4.71.43-8.52.41-4.07,0-9-.28-9-.54s4.74-.49,9-.45C21.71,4.24,26.23,4.54,26.23,4.78Z"/><rect class="cls-11" x="44.79" y="0.36" width="19.3" height="5.54" rx="1.66"/><path class="cls-12" d="M63.36.59c0,.25-4.7.43-8.51.41-4.07,0-9-.28-9-.54s4.74-.5,9-.46C58.85,0,63.37.35,63.36.59Z"/><rect class="cls-11" x="38.4" y="4.74" width="19.3" height="5.54" rx="1.66"/><path class="cls-12" d="M57,5c0,.25-4.71.43-8.52.41-4.07,0-9-.28-9-.54s4.74-.49,9-.45C52.46,4.42,57,4.72,57,5Z"/></g></g></svg>