<svg xmlns="http://www.w3.org/2000/svg" viewBox="0 0 81.67 253.26"><defs><style>.cls-1{fill:#eb6630;}.cls-2{fill:#ece4de;}.cls-3{fill:#236eb1;}.cls-4{fill:#1b2429;}.cls-5{fill:#c46e57;}.cls-6{fill:#6a7591;}.cls-7{fill:#cbbeb7;}.cls-8{fill:#665e58;}.cls-9{fill:#4a96e2;}.cls-10{fill:#064c92;}.cls-11{fill:#6b93c1;}</style></defs><g id="Layer_2" data-name="Layer 2"><g id="Layer_1-2" data-name="Layer 1"><path class="cls-1" d="M62,253.18l-61.38.08V212.74H62Z"/><path class="cls-2" d="M62,212.74H.63q-.15-20.1-.31-40.2l61.69.07Z"/><path class="cls-3" d="M62,172.61.32,172.54l-.32-68H62Z"/><rect class="cls-1" y="89.2" width="62.01" height="15.38"/><rect class="cls-2" y="34.96" width="62.01" height="54.24"/><rect class="cls-4" y="21.48" width="62.01" height="13.48"/><rect class="cls-3" y="7.05" width="62.01" height="14.43"/><path class="cls-5" d="M81.46,244.09,62,253.18V212.74l19.66-8Z"/><path class="cls-5" d="M81.46,101.07,62,104.58V89l19.66-3.08Z"/><path class="cls-6" d="M81.25,165.21,62,172.61v-68l19.45-3.51Z"/><path class="cls-7" d="M81.67,205.25,62,212.74V172.61l19.24-7.4Z"/><path class="cls-7" d="M81.67,85.87,62,89.2V35l18.71-3.38Q81.2,58.72,81.67,85.87Z"/><path class="cls-8" d="M80.72,31.58,62,35V21.48l18.71-2.62Z"/><path class="cls-6" d="M80.72,18.86,62,21.48V7.05L80.56,4.91Q80.65,11.89,80.72,18.86Z"/><path class="cls-9" d="M62,7.56c-50.46,0-62-.25-62-.51,0-.09,1.24-.29,23-.9,23.74-.67,43.42-1,57.54-1.24Z"/><rect class="cls-10" x="21.36" y="0.36" width="19.3" height="5.54" rx="1.66"/><path class="cls-11" d="M39.94.59c0,.25-4.71.43-8.52.41-4.07,0-9-.28-9-.54s4.74-.5,9-.46C35.42,0,39.94.35,39.94.59Z"/><rect class="cls-10" x="9.73" y="2.32" width="19.3" height="5.54" rx="1.66"/><path class="cls-11" d="M28.31,2.54c0,.25-4.71.43-8.52.41-4.07,0-9-.28-9-.54s4.74-.49,9-.45C23.79,2,28.31,2.3,28.31,2.54Z"/><rect class="cls-10" x="52.36" y="0.36" width="19.3" height="5.54" rx="1.66"/><path class="cls-11" d="M70.94.59c0,.25-4.71.43-8.51.41-4.07,0-9-.28-9-.54s4.74-.5,9-.46C66.42,0,71,.35,70.94.59Z"/><rect class="cls-10" x="41.68" y="2.32" width="19.3" height="5.54" rx="1.66"/><path class="cls-11" d="M60.26,2.54c0,.25-4.71.43-8.51.41-4.07,0-9-.28-9-.54s4.74-.49,9-.45C55.75,2,60.27,2.3,60.26,2.54Z"/></g></g></svg>