<svg xmlns="http://www.w3.org/2000/svg" viewBox="0 0 71.89 187.64"><defs><style>.cls-1{fill:#236eb1;}.cls-2{fill:#aec4ee;}.cls-3{fill:#eb6630;}.cls-4{fill:#ece4de;}.cls-5{fill:#7d9ed3;}.cls-6{fill:#034584;}.cls-7{fill:#5276c0;}.cls-8{fill:#e79a8b;}.cls-9{fill:#e1d4cb;}.cls-10{fill:#afb3da;}.cls-11{fill:#e9ddd6;}.cls-12{fill:#ea9a7a;}</style></defs><g id="Layer_2" data-name="Layer 2"><g id="Layer_1-2" data-name="Layer 1"><rect class="cls-1" x="5.9" y="10.65" width="66" height="25.58"/><path class="cls-2" d="M71.89,10.65H5.9L1.52,5.38l58.66-.79Z"/><path class="cls-1" d="M71,134.13H5.36L5.21,91.37,71,91.3Z"/><path class="cls-3" d="M70.36,187.64l-65.22-.06q0-13.49-.08-27h65Q70.22,174.12,70.36,187.64Z"/><path class="cls-4" d="M70.08,160.62h-65l.3-26.49,64.55.19Q70,147.48,70.08,160.62Z"/><path class="cls-4" d="M71.15,77.5l-65.81.12L5.9,36.23h66Z"/><path class="cls-3" d="M70.89,91.43,5.21,91.37q.06-6.87.13-13.75l65.63,0Q70.94,84.54,70.89,91.43Z"/><path class="cls-5" d="M5.9,36.23,1.38,32.39q.08-13.5.14-27L5.9,10.65Z"/><rect class="cls-6" x="8.59" y="0.54" width="20.26" height="5.54" rx="1.66"/><path class="cls-7" d="M28.1.77c0,.25-4.94.43-8.94.41C14.89,1.16,9.73.9,9.73.64s5-.49,9.43-.45C23.36.22,28.11.53,28.1.77Z"/><rect class="cls-6" x="41.14" y="0.36" width="19.3" height="5.54" rx="1.66"/><path class="cls-7" d="M59.72.59C59.71.84,55,1,51.2,1c-4.07,0-9-.28-9-.54S47,0,51.2,0C55.2,0,59.72.35,59.72.59Z"/><rect class="cls-6" x="46.52" y="4.72" width="19.3" height="5.96" rx="1.66"/><path class="cls-7" d="M65.1,5c0,.27-4.71.46-8.51.44-4.07,0-9-.31-9-.58s4.74-.53,9-.49C60.59,4.37,65.11,4.7,65.1,5Z"/><rect class="cls-6" x="10.93" y="4.28" width="19.95" height="6.19" rx="1.66"/><path class="cls-7" d="M30.15,4.53c0,.28-4.87.48-8.81.46-4.21,0-9.29-.31-9.29-.6s4.9-.55,9.29-.51C25.48,3.93,30.15,4.26,30.15,4.53Z"/><path class="cls-8" d="M5.14,187.58,0,179q0-12.27,0-24.54l5.06,6.13Q5.11,174.09,5.14,187.58Z"/><path class="cls-9" d="M5.07,160.62,0,154.49.42,127.8l4.94,6.33Q5.21,147.38,5.07,160.62Z"/><path class="cls-10" d="M5.36,134.13.42,127.8l.47-40,4.32,3.57Z"/><path class="cls-11" d="M5.34,77.62,1,74.56q.21-21.09.43-42.17L5.9,36.23Z"/><path class="cls-12" d="M5.21,91.37.89,87.8,1,74.56l4.39,3.06Q5.28,84.49,5.21,91.37Z"/></g></g></svg>