<svg xmlns="http://www.w3.org/2000/svg" viewBox="0 0 74.58 172.77"><defs><style>.cls-1{fill:#fdc33d;}.cls-2{fill:#cbc2b9;}.cls-3{fill:#f7d296;opacity:0.22;}.cls-4{fill:#9b9a9a;}.cls-5{fill:#ff8a8e;}.cls-6{fill:#fbe9c2;}.cls-7{fill:#fff;}.cls-8{fill:#d4cec9;}.cls-9{fill:#7f7c76;}.cls-10{fill:none;stroke:#5e5d5b;stroke-miterlimit:10;stroke-width:0.5px;}.cls-11{fill:#efb693;}.cls-12{fill:#c42b14;}.cls-13{fill:#d9d1cb;}</style></defs><g id="Layer_2" data-name="Layer 2"><g id="Layer_1-2" data-name="Layer 1"><path class="cls-1" d="M.19,25.11,0,39.44l66.13,1,.06-14.89Z"/><path class="cls-2" d="M66.19,11.82l8.39-1.93q-.14,6-.26,11.93L66.19,25.5Z"/><path class="cls-3" d="M66.19,25.5l8.13-3.68-.19,15.1-8,3.53Z"/><path class="cls-4" d="M66.13,94.11l8-6.35.06,41.55-7.85,4.92Z"/><path class="cls-5" d="M66.13,172.77q2.46-2.46,5-5.14c.92-1,1.83-2,2.71-3l.38-35.35-7.85,4.92Z"/><path class="cls-6" d="M66.13,47V40.45l8-3.53V87.76l-8,6.35Z"/><path class="cls-7" d="M16.9,4.15l8.26.25"/><path class="cls-8" d="M74.58,9.89,6.84,9.63.19,11.56l66,.26Z"/><path class="cls-9" d="M.19,11.56V25.11l66,.39V11.82Z"/><line class="cls-10" x1="66.32" y1="94.21" x2="2.45" y2="94.21"/><path class="cls-11" d="M66.13,94.11.19,93.44,0,39.44q17,.2,33.94.45,16.1.22,32.19.5Z"/><path d="M66.34,134.23.39,134.08.19,93.44l66.13.77Z"/><path class="cls-12" d="M66.13,172.77.32,171q0-18.45.07-36.9l66,.15Z"/><rect class="cls-9" x="50.19" y="1.43" width="14.72" height="9.02" rx="0.74" transform="translate(115.11 11.88) rotate(180)"/><ellipse class="cls-13" cx="57.53" cy="1.36" rx="7.2" ry="1.06"/><rect class="cls-9" x="42.19" y="3.88" width="16" height="9.74" rx="0.74" transform="translate(100.38 17.49) rotate(180)"/><ellipse class="cls-13" cx="50.17" cy="3.69" rx="7.82" ry="1.05"/><rect class="cls-9" x="20.95" y="1.14" width="15.8" height="9.02" rx="0.74" transform="translate(57.7 11.3) rotate(180)"/><ellipse class="cls-13" cx="28.83" cy="1.06" rx="7.72" ry="1.06"/><rect class="cls-9" x="8.4" y="3.54" width="16" height="9.74" rx="0.74" transform="translate(32.81 16.81) rotate(180)"/><ellipse class="cls-13" cx="16.38" cy="3.35" rx="7.82" ry="1.05"/></g></g></svg>