<svg xmlns="http://www.w3.org/2000/svg" viewBox="0 0 77.66 56.88"><defs><style>.cls-1{fill:#d4cec9;}.cls-2{fill:#ededed;}.cls-3{fill:#fff;}.cls-4{fill:#dbdbdb;}</style></defs><g id="Layer_2" data-name="Layer 2"><g id="Layer_1-2" data-name="Layer 1"><rect class="cls-1" x="13.48" y="18.04" width="64.18" height="38.84"/><polygon class="cls-2" points="13.48 17.87 0 6.73 0 45.99 13.48 56.88 13.48 17.87"/><polygon class="cls-3" points="15.87 11.46 15.87 15.85 24 16.36 33.81 16.36 35.87 15.33 35.87 11.46 27.36 11.46 15.87 11.46"/><polygon class="cls-3" points="22.32 9.91 33.03 9.91 35.87 11.46 15.87 11.46 22.32 9.91"/><rect class="cls-4" x="37.86" y="0.68" width="16.9" height="8.76" rx="1.84"/><ellipse class="cls-3" cx="46.31" cy="1.24" rx="7.85" ry="1.24"/><rect class="cls-4" x="10.57" y="0.68" width="16.9" height="8.76" rx="1.84"/><ellipse class="cls-3" cx="19.02" cy="1.24" rx="7.85" ry="1.24"/><rect class="cls-4" x="48.83" y="8.1" width="16.9" height="8.76" rx="1.84"/><ellipse class="cls-3" cx="57.28" cy="8.65" rx="7.85" ry="1.24"/><rect class="cls-4" x="17.81" y="8.1" width="16.9" height="8.76" rx="1.84"/><ellipse class="cls-3" cx="26.26" cy="8.65" rx="7.85" ry="1.24"/></g></g></svg>