<svg xmlns="http://www.w3.org/2000/svg" viewBox="0 0 138.97 328.22"><defs><style>.cls-1{fill:#7292bb;}.cls-2{fill:#d9d1cb;}.cls-3{fill:#327d3f;}.cls-4{fill:#efb693;}.cls-5{fill:#c42b14;}.cls-6{fill:#7f7c76;}.cls-7{fill:#ff8a8e;}.cls-8{fill:#fbe9c2;}.cls-9{fill:#c0d7a7;}.cls-10{fill:#ccdbfc;}.cls-11{fill:#cbc2b9;}</style></defs><g id="Layer_2" data-name="Layer 2"><g id="Layer_1-2" data-name="Layer 1"><rect class="cls-1" x="8.56" y="285.96" width="67.1" height="42.26"/><rect class="cls-1" x="8.56" y="244.16" width="66.68" height="42.81"/><rect class="cls-1" x="8.86" y="199.22" width="66.38" height="46.84"/><rect class="cls-1" x="9.08" y="161.83" width="66.16" height="40.55"/><rect class="cls-2" x="75.24" y="285.96" width="63.73" height="42.26"/><rect class="cls-2" x="75.24" y="244.54" width="63.73" height="41.42"/><rect class="cls-2" x="75.24" y="202.61" width="63.73" height="41.94"/><rect class="cls-2" x="75.24" y="161.45" width="63.73" height="41.16"/><rect class="cls-3" x="9.08" y="135.45" width="66.16" height="27.39"/><rect class="cls-3" x="75.24" y="135.45" width="63.73" height="27.39"/><path class="cls-4" d="M75.69,135.35H9.91l-.12,0a.89.89,0,0,0-.71.15l.66-41.06a.18.18,0,0,1,.17-.17H75.69a.17.17,0,0,1,.16.17v40.79Z"/><path class="cls-4" d="M139,135.45H75.85V94.22H139Z"/><path class="cls-4" d="M99.5,54.64l-63,0V35.77h63Q99.51,45.21,99.5,54.64Z"/><rect class="cls-5" x="36.52" y="21.93" width="63" height="13.84"/><rect class="cls-6" x="36.48" y="8.19" width="62.99" height="13.74"/><path class="cls-7" d="M31.35,20.51l5.17,1.42V35.77L31.39,33"/><path class="cls-8" d="M36.47,35.69,31.39,33Q31,60.3,30.69,87.63l5.76,2.72Q36.47,63,36.47,35.69Z"/><path class="cls-8" d="M4.65,91.74c1.76,1,3.47,1.88,5.09,2.65l-.66,41.06L.45,127.22Q.35,117.16.23,107.1L0,88.9Q2.15,90.31,4.65,91.74Z"/><polygon class="cls-9" points="0.45 152.87 9.08 162.84 9.08 135.35 0.45 127.22 0.45 152.87"/><path class="cls-10" d="M.45,152.87l8.63,10q-.26,82.7-.52,165.39Q4.51,322.81.45,317.38Z"/><path class="cls-8" d="M0,88.9l122.61-1.51L139,94.22,9.42,95Z"/><path class="cls-4" d="M99.4,90.21l-62.95.14q0-17.84.07-35.68l63,0Q99.46,72.43,99.4,90.21Z"/><path class="cls-2" d="M99.47,8.19l-63,.48-5-1.13,53.29-.41Z"/><path class="cls-6" d="M76.39,7.54H64.68a1.26,1.26,0,0,1-1.26-1.25V1.48a1,1,0,0,1,.37-.89,1,1,0,0,1,1.15,0c1.37.12,4.08.32,6.9.29A28.45,28.45,0,0,0,76.07.74c.28-.1,1-.41,1.38-.09a1,1,0,0,1,.2.83V6.29A1.26,1.26,0,0,1,76.39,7.54Z"/><path class="cls-2" d="M77.45.65c0,.27-3.94.41-6.58.41-2.93,0-7.08-.18-7.08-.47S67.4,0,70.87,0C74.07,0,77.45.39,77.45.65Z"/><path class="cls-6" d="M48.94,7.9H37.24A1.23,1.23,0,0,1,36,6.72V2.22a.88.88,0,0,1,.37-.83,1,1,0,0,1,1.15,0c1.37.11,4.08.3,6.9.27a31,31,0,0,0,4.23-.15c.28-.1,1-.38,1.38-.09a.87.87,0,0,1,.2.78v4.5A1.23,1.23,0,0,1,48.94,7.9Z"/><path class="cls-2" d="M50,1.44c0,.26-3.94.39-6.57.39-2.94,0-7.08-.17-7.09-.44S40,.81,43.43.84C46.62.86,50,1.2,50,1.44Z"/><path class="cls-6" d="M88.49,8.88H76.78A1.18,1.18,0,0,1,75.52,7.8V3.65a.8.8,0,0,1,.37-.77A1.13,1.13,0,0,1,77,2.9c1.37.1,4.08.27,6.9.25A34.42,34.42,0,0,0,88.17,3c.28-.09,1-.35,1.38-.08a.76.76,0,0,1,.2.72V7.8A1.18,1.18,0,0,1,88.49,8.88Z"/><path class="cls-2" d="M89.55,2.93c0,.23-3.94.36-6.58.36-2.93,0-7.08-.16-7.08-.41S79.5,2.34,83,2.37C86.17,2.4,89.55,2.71,89.55,2.93Z"/><rect class="cls-4" x="101.11" y="79.04" width="16" height="8.53" rx="0.74" transform="translate(218.23 166.6) rotate(180)"/><ellipse class="cls-8" cx="109.09" cy="79.43" rx="7.82" ry="1.47"/><rect class="cls-4" x="104.66" y="85.55" width="16" height="9.74" rx="0.74" transform="translate(225.32 180.84) rotate(180)"/><ellipse class="cls-8" cx="112.64" cy="85.99" rx="7.82" ry="1.67"/><rect class="cls-4" x="75.51" y="85.55" width="16" height="9.74" rx="0.74" transform="translate(167.03 180.84) rotate(180)"/><ellipse class="cls-8" cx="83.49" cy="85.99" rx="7.82" ry="1.67"/><rect class="cls-4" x="46.37" y="86.17" width="16" height="9.74" rx="0.74" transform="translate(108.74 182.07) rotate(180)"/><ellipse class="cls-8" cx="54.34" cy="86.61" rx="7.82" ry="1.67"/><rect class="cls-4" x="11.65" y="80.07" width="16" height="9.74" rx="0.74" transform="translate(39.3 169.87) rotate(180)"/><ellipse class="cls-8" cx="19.63" cy="80.51" rx="7.82" ry="1.67"/><rect class="cls-4" x="16.88" y="87.4" width="16" height="9.74" rx="0.74" transform="translate(49.76 184.53) rotate(180)"/><ellipse class="cls-8" cx="24.86" cy="87.84" rx="7.82" ry="1.67"/><path class="cls-11" d="M31.45,7.54l5,1.13,0,13.31-5.13-1.47Q31.41,14,31.45,7.54Z"/><path class="cls-6" d="M60.22,9.09H48.51A1.18,1.18,0,0,1,47.25,8V3.86a.8.8,0,0,1,.37-.77,1.11,1.11,0,0,1,1.15,0c1.37.1,4.08.27,6.9.25a34.29,34.29,0,0,0,4.23-.14c.28-.09,1-.35,1.38-.08a.76.76,0,0,1,.2.72V8A1.18,1.18,0,0,1,60.22,9.09Z"/><path class="cls-2" d="M61.28,3.14c0,.23-3.94.36-6.58.36-2.93,0-7.07-.16-7.08-.41s3.61-.54,7.08-.51C57.9,2.61,61.28,2.92,61.28,3.14Z"/></g></g></svg>