<svg xmlns="http://www.w3.org/2000/svg" viewBox="0 0 82.61 255.94"><defs><style>.cls-1{fill:#46824e;}.cls-2{fill:#ea9349;}.cls-3{fill:#7a3765;}.cls-4{fill:#779974;}.cls-5{fill:#505d44;}.cls-6{fill:#f8a36a;}.cls-7{fill:#b87f55;}.cls-8{fill:#a1748f;}.cls-9{fill:#895f73;}.cls-10{fill:#56925f;}.cls-11{fill:#336e3f;}</style></defs><g id="Layer_2" data-name="Layer 2"><g id="Layer_1-2" data-name="Layer 1"><path class="cls-1" d="M82.06,255.35l-64.61.59q.26-19.87.52-39.75l64.09-1.48Z"/><path class="cls-1" d="M82.06,214.65,17.9,216.19l.26-41.29,63.9-1.09Z"/><path class="cls-1" d="M82.06,91.55l-63.12.39q.15-21.69.32-43.36l63.15-.65Z"/><path class="cls-2" d="M82.06,133.29,18.94,134V91.94l63.12-.39Z"/><path class="cls-2" d="M82.06,173.94l-63.38,1q.12-20.44.26-40.9l63.12-.71Z"/><path class="cls-1" d="M82.47,33.5l-63.21.66.09-25.48,63.26-.15Q82.55,21,82.47,33.5Z"/><path class="cls-3" d="M82.41,47.93l-63.15.65V34.16l63.21-.67Z"/><path class="cls-4" d="M17.9,255.94l-6.77-3.13L12,172.48l6.68,2.42Z"/><path class="cls-5" d="M11.13,252.81,0,245.74l.39-78.58L12,172.48Z"/><path class="cls-6" d="M18.68,174.9,12,172.48l1.05-82.06,5.89,1.52Q18.81,133.42,18.68,174.9Z"/><path class="cls-7" d="M12,172.48.39,167.16,1.11,87l11.94,3.44Z"/><path class="cls-4" d="M18.94,91.94l-5.89-1.52-.11-42.48,6.32.64Q19.1,70.26,18.94,91.94Z"/><path class="cls-5" d="M13.05,90.42,1.11,87l.6-39.75,11.23.71Z"/><path class="cls-8" d="M19.26,48.58l-6.32-.66V34.16l6.32.07Z"/><path class="cls-9" d="M12.94,47.94,1.71,47.21l.42-15.36,10.81,2.31Z"/><path class="cls-4" d="M19.26,34.16a23.43,23.43,0,0,1-5.94,0c-.79-.11-1.54-.25-2.23-.41q0-12.87,0-25.74l8.22.66Z"/><path class="cls-5" d="M11.09,33.76l-9-1.91L2.16,7l9,1Q11.1,20.89,11.09,33.76Z"/><path class="cls-10" d="M19.35,8.68,2.16,7l64.61-.42L82.61,8.53Z"/><path class="cls-11" d="M29.13,7.19H9.58v-6H28.93Z"/><ellipse class="cls-4" cx="19.25" cy="1.16" rx="9.68" ry="0.77"/><path class="cls-11" d="M41.86,8.89H22.3v-6H41.66Z"/><ellipse class="cls-4" cx="31.98" cy="2.85" rx="9.68" ry="0.77"/><path class="cls-11" d="M63.34,6.81H43.79v-6H63.14Z"/><ellipse class="cls-4" cx="53.46" cy="0.77" rx="9.68" ry="0.77"/><path class="cls-11" d="M74.28,8.55H54.72V3.16H74.08Z"/><ellipse class="cls-4" cx="64.4" cy="3.16" rx="9.68" ry="0.69"/></g></g></svg>