<svg xmlns="http://www.w3.org/2000/svg" viewBox="0 0 71.87 257.63"><defs><style>.cls-1{fill:#46824e;}.cls-2{fill:#ea9349;}.cls-3{fill:#f6c332;}.cls-4{fill:#ffec87;}.cls-5{fill:#728e67;}.cls-6{fill:#deaf90;}.cls-7{fill:#56925f;}.cls-8{fill:#336e3f;}.cls-9{fill:#779974;}</style></defs><g id="Layer_2" data-name="Layer 2"><g id="Layer_1-2" data-name="Layer 1"><path class="cls-1" d="M71.77,257.18l-66.87.45q0-21.45.07-42.9l66.84.25Q71.79,236.09,71.77,257.18Z"/><path class="cls-1" d="M71.81,215,5,214.73l0-38.49,66.79-1.09Q71.77,195.05,71.81,215Z"/><path class="cls-1" d="M71.77,92.15,5,91.71q-.07-20.29-.16-40.6l67,0Z"/><path class="cls-2" d="M71.82,133.42,5,133.32q0-20.8,0-41.61l66.77.44Q71.8,112.78,71.82,133.42Z"/><path class="cls-2" d="M71.74,175.15,5,176.24V133.32l66.87.1Q71.79,154.29,71.74,175.15Z"/><path class="cls-1" d="M71.82,36.16l-67.1,0q.12-13.51.23-27H71.77Q71.8,22.62,71.82,36.16Z"/><path class="cls-3" d="M71.87,51.06l-67,0-.12-15,67.1,0Q71.85,43.62,71.87,51.06Z"/><path class="cls-4" d="M4.84,51.11.26,49.37.35,35.15l4.37,1Z"/><path class="cls-5" d="M5,91.71.32,86.15.26,49.37l4.58,1.74Q4.91,71.42,5,91.71Z"/><path class="cls-5" d="M4.72,36.11l-4.37-1Q.25,20.81.13,6.47L5,9.06Q4.83,22.59,4.72,36.11Z"/><path class="cls-6" d="M5,176.24,0,171q.17-42.42.32-84.83l4.62,5.66Z"/><path class="cls-5" d="M4.9,257.63Q2.49,253,.06,248.27L0,171l4.89,5.35Q4.89,217,4.9,257.63Z"/><path class="cls-7" d="M71.77,9.06H5L.13,6.47,55,6.21Z"/><path class="cls-8" d="M26.34,7.19H6.79v-6H26.14Z"/><ellipse class="cls-9" cx="16.46" cy="1.16" rx="9.68" ry="0.77"/><path class="cls-8" d="M30.89,8.35H11.33v-6H30.69Z"/><ellipse class="cls-9" cx="21.01" cy="2.32" rx="9.68" ry="0.77"/><path class="cls-8" d="M60.7,6.81H41.14v-6H60.5Z"/><ellipse class="cls-9" cx="50.82" cy="0.77" rx="9.68" ry="0.77"/><path class="cls-8" d="M65.05,8.74H45.5v-6H64.85Z"/><ellipse class="cls-9" cx="55.17" cy="2.71" rx="9.68" ry="0.77"/></g></g></svg>