<svg xmlns="http://www.w3.org/2000/svg" viewBox="0 0 72.45 258.08"><defs><style>.cls-1{fill:#46824e;}.cls-2{fill:#ea9349;}.cls-3{fill:#216aa2;}.cls-4{fill:#e8b189;}.cls-5{fill:#a6a68f;}.cls-6{fill:#af9ba8;}.cls-7{fill:#badcb1;}.cls-8{fill:#336e3f;}.cls-9{fill:#779974;}</style></defs><g id="Layer_2" data-name="Layer 2"><g id="Layer_1-2" data-name="Layer 1"><path class="cls-1" d="M67,258.08l-65.68-.26q.06-21.62.13-43.22l65-.13Z"/><path class="cls-1" d="M66.45,214.47l-65,.13q-.13-19.17-.26-38.33l64.9.13Z"/><path class="cls-1" d="M66.32,93.18.52,92.27V50.73l65.54-.26Q66.2,71.82,66.32,93.18Z"/><path class="cls-2" d="M66.19,133.56.9,133.18.52,92.27l65.8.91Q66.26,113.37,66.19,133.56Z"/><path class="cls-2" d="M66.06,176.4l-64.9-.13Q1,154.73.9,133.18l65.29.38Q66.13,155,66.06,176.4Z"/><path class="cls-1" d="M65.94,36.53.39,36.15,0,8.79l65.93.38Z"/><path class="cls-3" d="M66.06,50.47.52,50.73.39,36.15l65.55.38Z"/><path class="cls-4" d="M72.32,169.56l-6.26,6.84q.14-41.61.26-83.22l6.05-3.7Q72.34,129.53,72.32,169.56Z"/><path class="cls-5" d="M72.32,250.76,67,258.08l-.91-81.68,6.26-6.84Z"/><path class="cls-5" d="M72.37,89.48l-6.05,3.7q-.12-21.36-.26-42.71l6.17-2.6Z"/><path class="cls-6" d="M72.23,47.87l-6.17,2.6-.12-13.94,6.38-.27Z"/><path class="cls-5" d="M72.32,36.26l-6.38.27V9.17l6.52-2.38Q72.39,21.52,72.32,36.26Z"/><path class="cls-7" d="M65.93,9.17.51,8.79l9-1.61,62.93-.39Z"/><path class="cls-8" d="M65.21,7.19H45.66v-6H65Z"/><ellipse class="cls-9" cx="55.33" cy="1.16" rx="9.68" ry="0.77"/><path class="cls-8" d="M60.9,8.66H41.35v-6H60.7Z"/><ellipse class="cls-9" cx="51.02" cy="2.63" rx="9.68" ry="0.77"/><path class="cls-8" d="M31.83,6.81H12.27v-6H31.63Z"/><ellipse class="cls-9" cx="21.95" cy="0.77" rx="9.68" ry="0.77"/><path class="cls-8" d="M26.6,8.66H7v-6H26.4Z"/><ellipse class="cls-9" cx="16.72" cy="2.63" rx="9.68" ry="0.77"/></g></g></svg>