<svg xmlns="http://www.w3.org/2000/svg" viewBox="0 0 85.01 253.44"><defs><style>.cls-1{fill:#46824e;}.cls-2{fill:#ea9349;}.cls-3{fill:#cd3520;}.cls-4{fill:#505d44;}.cls-5{fill:#a87244;}.cls-6{fill:#864d44;}.cls-7{fill:#779974;}.cls-8{fill:#336e3f;}</style></defs><g id="Layer_2" data-name="Layer 2"><g id="Layer_1-2" data-name="Layer 1"><path class="cls-1" d="M62.13,253.44H2.19l-.54-39,60.48.11Z"/><path class="cls-1" d="M62.13,215.24l-60.48-.05-.3-43.25,60.78.15Z"/><path class="cls-1" d="M62.13,89.63.73,89.48.13,49h62Z"/><path class="cls-2" d="M62.13,131.37l-61,0Q.91,110.42.73,89.48l61.4.15Z"/><path class="cls-2" d="M62.13,172.08l-60.78-.14-.24-40.6,61,0Z"/><path class="cls-1" d="M62.13,35.11,0,35Q.06,21.44.13,7.89l62,.13Z"/><path class="cls-3" d="M62.9,49H.13Q.07,42,0,35l62.77.13Q62.83,42.06,62.9,49Z"/><path class="cls-4" d="M84.41,204.15,62.13,214.34v39.1L85,244Z"/><path class="cls-4" d="M84.39,165.18l-22.26,6.9v42.39l22.28-9.18Q84.4,185.24,84.39,165.18Z"/><path class="cls-4" d="M83.62,46.08,62.13,49V89.63l21.74-4.19Q83.75,65.76,83.62,46.08Z"/><path class="cls-5" d="M83.88,85.44,62.13,89.63v41.74l22-4.19Z"/><path class="cls-5" d="M84.16,127.18l-22,4.19v40.71l22.28-6.34Q84.28,146.46,84.16,127.18Z"/><path class="cls-4" d="M83.43,6.75,62.13,8l.12,27,21.36-1.91Z"/><path class="cls-6" d="M83.61,33,62.19,35l-.06,14,21.48-2.9Z"/><path class="cls-7" d="M62.13,8l-62-.13,18.45-1,64.85-.1Z"/><path class="cls-8" d="M73.14,6.81H53.58v-6H72.94Z"/><ellipse class="cls-7" cx="63.26" cy="0.77" rx="9.68" ry="0.77"/><path class="cls-8" d="M62.9,8H43.35v-6H62.7Z"/><ellipse class="cls-7" cx="53.02" cy="1.94" rx="9.68" ry="0.77"/><path class="cls-8" d="M41.42,7.19H21.87v-6H41.22Z"/><ellipse class="cls-7" cx="31.54" cy="1.16" rx="9.68" ry="0.77"/><path class="cls-8" d="M28.21,8H8.66v-6H28Z"/><ellipse class="cls-7" cx="18.33" cy="1.94" rx="9.68" ry="0.77"/></g></g></svg>